<svg width="1920" height="1170" viewBox="0 0 1920 1170" fill="none" xmlns="http://www.w3.org/2000/svg">
<path d="M0 -2H1920V1078H0V-2Z" fill="url(#paint0_radial)"/>
<path d="M0 485.55C59.95 531.55 152.35 587.2 270.4 599.7C540.05 628.25 607.65 395.95 904.4 374.4C1160.55 355.8 1283.5 516.4 1573.75 455.7C1626.95 444.55 1685.3 426.1 1743.45 386C1851.35 311.55 1899 203.3 1920 137.7V1078H0V485.55Z" fill="url(#paint1_radial)"/>
<g clip-path="url(#clip0)">
<path d="M1926.9 980.4V1173.6H-228V983.5C-227.7 983.5 -227.4 983.5 -227.1 983.5C-215.3 983.5 -206.3 979.6 -196.6 975.5C-187 971.4 -177 967.1 -164.2 967.1C-151.4 967.1 -141.4 971.4 -131.8 975.5C-122.2 979.6 -113.1 983.5 -101.4 983.5C-89.6 983.5 -80.6 979.6 -70.9 975.5C-61.3 971.4 -51.3 967.1 -38.5 967.1C-25.7 967.1 -15.7 971.4 -6.10001 975.5C-1 977.7 3.89999 979.8 9.2 981.3L9.3 980.9C14.7 982.5 19.8 983.2 24.9 983.2C36.7 983.2 45.7 979.3 55.3 975.2C65 971.1 75 966.8 87.8 966.8C100.6 966.8 110.6 971.1 120.2 975.2C129.8 979.3 138.9 983.2 150.6 983.2C162.4 983.2 171.4 979.3 181 975.2C190.6 971.1 200.6 966.8 213.4 966.8C226.2 966.8 236.2 971.1 245.8 975.2C250.8 977.3 255.6 979.4 260.7 980.9C264 981.9 267.2 982.5 270.4 982.9C270.5 982.9 270.6 982.9 270.6 982.9C271.1 983 271.7 983 272.2 983.1C272.5 983.1 272.7 983.1 272.9 983.1C273.4 983.1 273.8 983.2 274.3 983.2C274.7 983.2 275.1 983.2 275.5 983.2C275.7 983.2 276 983.2 276.2 983.2C288 983.2 297 979.3 306.6 975.2C316.3 971.1 326.2 966.8 339 966.8C340.2 966.8 341.4 966.8 342.6 966.9C345.3 967.1 347.8 967.4 350.2 967.9C358 969.4 364.8 972.3 371.5 975.2C375.7 977 379.8 978.7 384 980.2C386.4 981 388.9 981.7 391.5 982.2C391.7 982.2 392 982.3 392.2 982.3C393 982.4 393.8 982.6 394.5 982.7C395.1 982.8 395.8 982.9 396.5 982.9C396.9 982.9 397.2 983 397.6 983C399 983.1 400.4 983.2 401.8 983.2C406.9 983.2 412 982.4 417.4 980.9C422.5 979.4 427.4 977.3 432.3 975.2C441.9 971.1 451.9 966.8 464.7 966.8C477.5 966.8 487.5 971.1 497.1 975.2C502.2 977.4 507.1 979.5 512.4 981L512.5 980.6C517.8 982.2 522.9 982.9 528.1 982.9C539.9 982.9 548.9 979 558.5 974.9C568.1 970.8 578.1 966.5 590.9 966.5C603.7 966.5 613.7 970.8 623.3 974.9C632.9 979 642 982.9 653.7 982.9C665.5 982.9 674.5 979 684.2 974.9C693.8 970.8 703.8 966.5 716.6 966.5C729.4 966.5 739.4 970.8 749 974.9C758.6 979 767.7 982.9 779.4 982.9C786 982.9 791.8 981.7 797.3 979.9C797.9 979.7 798.4 979.5 799 979.3C802 978.2 805 977 808 975.7C808.6 975.4 809.2 975.2 809.8 974.9C809.8 974.9 809.9 974.9 809.9 974.8C811.7 974 813.4 973.3 815.2 972.5C815.2 972.5 815.3 972.5 815.3 972.4C816.5 971.9 817.7 971.4 818.9 971C819.1 970.9 819.3 970.9 819.4 970.8L820.9 970.3C821.5 970.1 822.1 969.9 822.7 969.7C828.6 967.7 834.9 966.4 842.2 966.4C855 966.4 865 970.7 874.6 974.8C884.2 978.9 893.3 982.8 905.1 982.8C910.2 982.8 915.3 982 920.7 980.5C925.8 979 930.5 977 935.4 974.9C945.1 970.8 955 966.5 967.8 966.5C980.6 966.5 990.6 970.8 1000.2 974.9C1005.3 977.1 1010.2 979.2 1015.5 980.7L1015.6 980.3C1021 981.9 1026.1 982.6 1031.2 982.6C1043 982.6 1052 978.7 1061.6 974.6C1071.2 970.5 1081.2 966.2 1094 966.2C1106.8 966.2 1116.8 970.5 1126.4 974.6C1136 978.7 1145.1 982.6 1156.8 982.6C1168.6 982.6 1177.6 978.7 1187.2 974.6C1196.9 970.5 1206.8 966.2 1219.6 966.2C1232.4 966.2 1242.4 970.5 1252 974.6C1257 976.7 1261.8 978.8 1266.9 980.3C1270.2 981.3 1273.4 981.9 1276.5 982.3C1276.7 982.3 1276.9 982.4 1277.1 982.4C1277.5 982.4 1278 982.5 1278.4 982.5C1278.6 982.5 1278.8 982.5 1279 982.5H1279.1C1279.5 982.5 1280 982.6 1280.4 982.6C1280.8 982.6 1281.2 982.6 1281.6 982.6C1281.8 982.6 1282.1 982.6 1282.3 982.6C1294.1 982.6 1303.1 978.7 1312.7 974.6C1322.4 970.5 1332.3 966.2 1345.1 966.2C1346.3 966.2 1347.5 966.2 1348.7 966.3C1352.1 966.5 1355.4 967 1358.4 967.8C1365.3 969.4 1371.5 972.1 1377.6 974.6C1381.8 976.4 1385.9 978.2 1390.2 979.6C1392.1 980.2 1394 980.8 1396 981.2C1396.5 981.3 1396.9 981.4 1397.4 981.5C1398.5 981.7 1399.6 981.9 1400.7 982.1C1401.3 982.2 1402 982.3 1402.6 982.3C1403.3 982.4 1404 982.4 1404.7 982.5C1405.8 982.6 1406.8 982.6 1407.9 982.6C1413 982.6 1418.1 981.8 1423.5 980.3V980.4C1428.6 978.9 1433.4 976.8 1438.4 974.7C1448.1 970.6 1458 966.3 1470.8 966.3C1483.6 966.3 1493.6 970.6 1503.2 974.7C1508.3 976.9 1513.2 979 1518.5 980.5L1518.6 980.1C1524 981.7 1529.1 982.4 1534.2 982.4C1546 982.4 1555 978.5 1564.6 974.4C1574.3 970.3 1584.2 966 1597 966C1609.8 966 1619.8 970.3 1629.4 974.4C1639 978.5 1648.1 982.4 1659.8 982.4C1671.6 982.4 1680.6 978.5 1690.3 974.4C1701 970.4 1711 966.1 1723.8 966.1C1736.6 966.1 1746.6 970.4 1756.2 974.5C1765.8 978.6 1774.9 982.5 1786.6 982.5C1798.3 982.5 1807.4 978.6 1817 974.5C1826.6 970.4 1836.6 966.1 1849.4 966.1C1862.2 966.1 1872.2 970.4 1881.8 974.5C1891.4 978.6 1900.5 982.5 1912.3 982.5C1917.1 982.5 1921.9 981.8 1926.9 980.4Z" fill="#F7F7F7"/>
</g>
<defs>
<radialGradient id="paint0_radial" cx="0" cy="0" r="1" gradientUnits="userSpaceOnUse" gradientTransform="translate(1381.16 -315.636) rotate(180) scale(1672.88 1921.42)">
<stop offset="0.1118" stop-color="#4C0EA5"/>
<stop offset="0.6223" stop-color="#2753AA"/>
<stop offset="1" stop-color="#2F778E"/>
</radialGradient>
<radialGradient id="paint1_radial" cx="0" cy="0" r="1" gradientUnits="userSpaceOnUse" gradientTransform="translate(1381.16 -135.366) rotate(180) scale(1672.88)">
<stop offset="0.1118" stop-color="#420895"/>
<stop offset="0.6223" stop-color="#284D97"/>
<stop offset="1" stop-color="#418BA3"/>
</radialGradient>
<clipPath id="clip0">
<rect width="2157.3" height="207.6" fill="white" transform="translate(-230 962)"/>
</clipPath>
</defs>
</svg>
